<svg xmlns="http://www.w3.org/2000/svg" width="40" height="40" fill="none"><path fill="#573bf7" d="M26.574 22a3.96 3.96 0 0 0-.795 1.821v.003c-.15.922-.296 1.643-.434 2.183l-.002.006c-.125.488-.243.74-.302.84h-.001c-.066.04-.258.135-.652.23l-.024.006c-.483.12-1.142.242-2.003.357l-.023.003-.024.004a3.88 3.88 0 0 0-2.31 1.23A3.82 3.82 0 0 0 19 31.276c0 .93.328 1.83.97 2.547v.001l.005.005.065.072h.001a3.85 3.85 0 0 0 2.394 1.202c.854.1 1.515.212 2.005.325.365.084.558.17.637.214l.009.013c.057.098.155.315.26.703-2.172.408-4.677.642-7.346.642-8.284 0-15-2.239-15-5V22z"/><path fill="#775fff" d="M33 20.33c-.09.268-.141.523-.167.743q-.017.123-.032.232-.105.017-.219.033l-.066.009-.066.011q-.207.038-.41.101a3.78 3.78 0 0 0-2.479-.914c-.902 0-1.75.313-2.43.882l-.134.117a3.92 3.92 0 0 0-1.218 2.277v.003c-.15.922-.296 1.643-.434 2.183l-.002.006c-.125.488-.243.74-.302.84h-.001c-.066.04-.258.135-.652.23l-.024.006c-.483.12-1.142.242-2.003.357l-.023.003-.024.004a3.88 3.88 0 0 0-2.544 1.51Q18.9 29 18 29c-8.284 0-15-2.239-15-5V14h30z"/><path fill="#9481ff" d="M33 16c0 2.761-6.716 5-15 5S3 18.761 3 16V8h30z"/><ellipse cx="18" cy="8" fill="#b2a4ff" rx="15" ry="5"/><path fill="#8f989e" d="M29.562 39a.78.78 0 0 1-.545-.21.9.9 0 0 1-.277-.55 28 28 0 0 0-.442-2.464q-.246-.993-.625-1.64a3 3 0 0 0-.995-1.034q-.617-.38-1.565-.597a22 22 0 0 0-2.33-.38.85.85 0 0 1-.562-.283.8.8 0 0 1-.221-.566q0-.33.221-.573a.88.88 0 0 1 .538-.283 22 22 0 0 0 2.33-.42q.94-.226 1.55-.606.608-.38.987-1.018.372-.63.624-1.624.253-.986.49-2.448a.92.92 0 0 1 .285-.55.77.77 0 0 1 .537-.21q.315 0 .545.21.229.211.269.55.206 1.463.45 2.464.237 1.002.624 1.64.38.647.996 1.026.615.389 1.565.606.948.218 2.33.38a.84.84 0 0 1 .562.275.87.87 0 0 1 .213.581.8.8 0 0 1-.213.558.96.96 0 0 1-.554.29q-1.382.195-2.315.42-.94.236-1.548.615-.609.38-.988 1.01-.38.638-.632 1.624a28 28 0 0 0-.49 2.448.9.9 0 0 1-.277.549.77.77 0 0 1-.537.21m6.724-10.414a.44.44 0 0 1-.316-.121.48.48 0 0 1-.158-.307 17 17 0 0 0-.221-1.414q-.12-.51-.372-.767-.26-.259-.79-.404a18 18 0 0 0-1.47-.315.48.48 0 0 1-.284-.162.44.44 0 0 1-.118-.307q0-.186.118-.315a.52.52 0 0 1 .3-.162 17 17 0 0 0 1.446-.242q.522-.129.783-.396.252-.266.379-.792.118-.524.23-1.454.046-.428.473-.428.182 0 .308.121a.46.46 0 0 1 .143.323q.087.71.173 1.18.08.46.238.735.15.275.442.436.285.154.766.267.483.113 1.233.25.411.073.411.477t-.458.469q-.735.112-1.21.21-.473.105-.75.266a1.16 1.16 0 0 0-.434.445 2.5 2.5 0 0 0-.238.76q-.086.467-.173 1.195a.48.48 0 0 1-.143.323.42.42 0 0 1-.308.13"/></svg>